<svg width="177" height="42" viewBox="0 0 177 42" fill="none" xmlns="http://www.w3.org/2000/svg">
<path fill-rule="evenodd" clip-rule="evenodd" d="M27.0655 32.6211C28.0462 32.7642 28.7993 33.6086 28.7993 34.629C28.7993 35.7497 27.8908 36.6582 26.7701 36.6582C26.062 36.6582 25.4387 36.2956 25.0756 35.7459C24.0255 34.7253 22.6246 34.1384 21.1543 34.1099C19.6048 34.1385 18.1222 34.7305 16.9811 35.7698C16.6159 36.306 16.0004 36.6582 15.3027 36.6582C14.1819 36.6582 13.2734 35.7497 13.2734 34.629C13.2734 33.6203 14.0094 32.7835 14.9735 32.6263L14.9723 32.6234L16.1941 32.3716C17.438 32.1152 18.6582 31.7547 19.8418 31.2939L20.1417 31.1772C20.7901 30.9247 21.5122 30.9403 22.1491 31.2203C23.3072 31.7295 24.5172 32.1115 25.7577 32.3596L27.0655 32.6211Z" fill="#18A526" fill-opacity="0.7"/>
<path fill-rule="evenodd" clip-rule="evenodd" d="M28.7969 7.31486C28.7969 8.32357 28.0609 9.16038 27.0966 9.31755L27.0978 9.32047L25.876 9.57229C24.6321 9.82868 23.4119 10.1892 22.2283 10.6499L21.9284 10.7667C21.2801 11.0191 20.558 11.0036 19.921 10.7236C18.7629 10.2144 17.5529 9.8324 16.3124 9.58428L15.0046 9.32273C14.0239 9.17969 13.2708 8.33522 13.2708 7.31486C13.2708 6.19416 14.1793 5.28565 15.3 5.28565C16.0081 5.28565 16.6314 5.64829 16.9945 6.19798C18.0446 7.21851 19.4455 7.8054 20.9158 7.83395C22.4655 7.80539 23.9483 7.2132 25.0895 6.17369C25.4547 5.63763 26.0701 5.28564 26.7677 5.28564C27.8884 5.28564 28.7969 6.19415 28.7969 7.31486Z" fill="#18A526" fill-opacity="0.7"/>
<path fill-rule="evenodd" clip-rule="evenodd" d="M32.6816 14.9434C32.8244 13.9625 33.669 13.2091 34.6895 13.2091C35.8102 13.2091 36.7187 14.1176 36.7187 15.2383C36.7187 15.9463 36.3561 16.5697 35.8064 16.9327C34.7859 17.9828 34.199 19.3838 34.1705 20.854C34.199 22.4035 34.7911 23.8861 35.8303 25.0272C36.3666 25.3924 36.7187 26.0079 36.7187 26.7056C36.7187 27.8264 35.8102 28.7349 34.6895 28.7349C33.6809 28.7349 32.8441 27.999 32.6868 27.0348L32.684 27.036L32.4321 25.8142C32.1758 24.5703 31.8153 23.3501 31.3545 22.1666L31.2377 21.8666C30.9853 21.2183 31.0008 20.4962 31.2809 19.8593C31.79 18.7011 32.172 17.4912 32.4202 16.2506L32.6816 14.9434Z" fill="#18A526" fill-opacity="0.7"/>
<path fill-rule="evenodd" clip-rule="evenodd" d="M7.37296 13.209C8.38161 13.209 9.21837 13.9449 9.37562 14.9091L9.37853 14.9078L9.63036 16.1296C9.88674 17.3736 10.2472 18.5938 10.708 19.7773L10.8248 20.0772C11.0772 20.7256 11.0617 21.4477 10.7816 22.0846C10.2725 23.2427 9.89046 24.4527 9.64235 25.6933L9.38104 26.9998C9.2385 27.9811 8.39377 28.7348 7.37301 28.7348C6.2523 28.7348 5.34379 27.8263 5.34379 26.7056C5.34379 25.9975 5.70643 25.3742 6.25611 25.0111C7.2766 23.961 7.86347 22.5601 7.89202 21.0899C7.86345 19.5404 7.27141 18.0577 6.23215 16.9166C5.69589 16.5514 5.34375 15.9359 5.34375 15.2382C5.34375 14.1175 6.25226 13.209 7.37296 13.209Z" fill="#18A526" fill-opacity="0.7"/>
<path fill-rule="evenodd" clip-rule="evenodd" d="M33.5311 24.9453C34.3257 24.3534 35.455 24.4181 36.1764 25.1394C36.9688 25.9319 36.9688 27.2167 36.1764 28.0092C35.6757 28.5099 34.9785 28.6942 34.333 28.5622C32.8689 28.5831 31.4633 29.1587 30.4035 30.1782C29.328 31.2941 28.6982 32.7611 28.6262 34.3028C28.7471 34.9402 28.5609 35.6244 28.0676 36.1178C27.2751 36.9102 25.9903 36.9102 25.1978 36.1178C24.4846 35.4046 24.4133 34.2926 24.9839 33.4996L24.981 33.4984L25.6669 32.4564C26.3652 31.3955 26.9731 30.2778 27.4842 29.1151L27.6137 28.8205C27.8936 28.1835 28.4152 27.6839 29.0636 27.4315C30.2425 26.9726 31.3682 26.3872 32.4209 25.6854L33.5311 24.9453Z" fill="#18A526" fill-opacity="0.7"/>
<path fill-rule="evenodd" clip-rule="evenodd" d="M8.53174 16.9978C7.73716 17.59 6.6076 17.5254 5.88614 16.8039C5.09369 16.0115 5.09369 14.7266 5.88614 13.9342C6.38682 13.4335 7.08405 13.2491 7.72947 13.3811C9.19361 13.3602 10.5992 12.7846 11.659 11.7652C12.7345 10.6493 13.3642 9.18234 13.4363 7.64061C13.3153 7.00317 13.5015 6.31892 13.9949 5.82554C14.7873 5.03308 16.0721 5.03308 16.8646 5.82554C17.5778 6.53875 17.6491 7.65077 17.0786 8.44375L17.0815 8.44493L16.3956 9.48694C15.6973 10.5478 15.0894 11.6655 14.5783 12.8282L14.4488 13.1229C14.1688 13.7598 13.6473 14.2595 12.9989 14.5118C11.8199 14.9707 10.6942 15.5562 9.64159 16.2579L8.53174 16.9978Z" fill="#18A526" fill-opacity="0.7"/>
<path fill-rule="evenodd" clip-rule="evenodd" d="M36.1823 16.804C35.4691 17.5173 34.357 17.5886 33.564 17.0179L33.5628 17.021L32.5207 16.3351C31.4599 15.6368 30.3422 15.0289 29.1794 14.5178L28.8848 14.3883C28.2479 14.1083 27.7482 13.5867 27.4959 12.9384C27.037 11.7594 26.4515 10.6337 25.7498 9.58106L25.0106 8.47232C24.4175 7.67767 24.4818 6.54738 25.2037 5.82557C25.9961 5.03311 27.2809 5.03311 28.0734 5.82557C28.5739 6.32611 28.7583 7.02309 28.6265 7.66835C28.6473 9.13271 29.223 10.5385 30.2425 11.5985C31.3584 12.6739 32.8253 13.3036 34.367 13.3757C35.0045 13.2546 35.6889 13.4408 36.1823 13.9343C36.9748 14.7267 36.9748 16.0116 36.1823 16.804Z" fill="#18A526" fill-opacity="0.7"/>
<path fill-rule="evenodd" clip-rule="evenodd" d="M17.0608 33.4728C17.6525 34.2674 17.5876 35.3965 16.8664 36.1177C16.0739 36.9102 14.7891 36.9102 13.9967 36.1177C13.4959 35.617 13.3116 34.9196 13.4437 34.2741C13.4227 32.8101 12.8471 31.4046 11.8277 30.3449C10.7119 29.2694 9.24488 28.6397 7.70314 28.5677C7.06568 28.6887 6.38141 28.5025 5.888 28.0091C5.09555 27.2166 5.09555 25.9318 5.888 25.1393C6.60123 24.4261 7.71331 24.3548 8.50629 24.9254L8.50749 24.9224L9.54951 25.6083C10.6104 26.3066 11.7281 26.9145 12.8908 27.4256L13.1855 27.5551C13.8224 27.8351 14.322 28.3567 14.5744 29.005C15.0333 30.184 15.6187 31.3097 16.3205 32.3623L17.0608 33.4728Z" fill="#18A526" fill-opacity="0.7"/>
<path fill-rule="evenodd" clip-rule="evenodd" d="M21.0098 6.41798C19.2375 6.41798 17.8008 4.98126 17.8008 3.20899C17.8008 1.43671 19.2375 0 21.0098 0C22.782 0 24.2188 1.43671 24.2188 3.20899C24.2188 4.98126 22.782 6.41798 21.0098 6.41798ZM21.0098 4.67193C20.2018 4.67193 19.5469 4.01695 19.5469 3.209C19.5469 2.40105 20.2018 1.74608 21.0098 1.74608C21.8177 1.74608 22.4727 2.40105 22.4727 3.209C22.4727 4.01695 21.8177 4.67193 21.0098 4.67193Z" fill="#5DC067"/>
<path fill-rule="evenodd" clip-rule="evenodd" d="M21.0098 42C19.2375 42 17.8008 40.5633 17.8008 38.791C17.8008 37.0187 19.2375 35.582 21.0098 35.582C22.782 35.582 24.2188 37.0187 24.2188 38.791C24.2188 40.5633 22.782 42 21.0098 42ZM21.0098 40.2539C20.2018 40.2539 19.5469 39.599 19.5469 38.791C19.5469 37.9831 20.2018 37.3281 21.0098 37.3281C21.8177 37.3281 22.4727 37.9831 22.4727 38.791C22.4727 39.599 21.8177 40.2539 21.0098 40.2539Z" fill="#5DC067"/>
<path fill-rule="evenodd" clip-rule="evenodd" d="M10.6572 10.7327C9.40931 11.9912 7.3775 11.9998 6.11904 10.7519C4.86057 9.50398 4.85199 7.47218 6.09988 6.21372C7.34776 4.95525 9.37956 4.94667 10.638 6.19456C11.8965 7.44244 11.9051 9.47424 10.6572 10.7327ZM9.41731 9.50325C8.84842 10.077 7.92216 10.0809 7.34845 9.51198C6.77473 8.94309 6.77082 8.01683 7.33971 7.44312C7.9086 6.8694 8.83486 6.86549 9.40858 7.43438C9.98229 8.00327 9.9862 8.92953 9.41731 9.50325Z" fill="#5DC067"/>
<path fill-rule="evenodd" clip-rule="evenodd" d="M35.9228 35.7864C34.6749 37.0449 32.6431 37.0535 31.3847 35.8056C30.1262 34.5577 30.1176 32.5259 31.3655 31.2674C32.6134 30.009 34.6452 30.0004 35.9037 31.2483C37.1621 32.4962 37.1707 34.528 35.9228 35.7864ZM34.6829 34.557C34.114 35.1307 33.1878 35.1346 32.6141 34.5657C32.0403 33.9969 32.0364 33.0706 32.6053 32.4969C33.1742 31.9232 34.1005 31.9193 34.6742 32.4881C35.2479 33.057 35.2518 33.9833 34.6829 34.557Z" fill="#5DC067"/>
<path fill-rule="evenodd" clip-rule="evenodd" d="M6.43147 21.0617C6.43895 22.834 5.00832 24.2768 3.23606 24.2843C1.4638 24.2917 0.0210301 22.8611 0.0135478 21.0888C0.00606556 19.3166 1.4367 17.8738 3.20896 17.8663C4.98122 17.8589 6.42399 19.2895 6.43147 21.0617ZM4.68537 21.0691C4.68878 21.877 4.03658 22.5348 3.22864 22.5382C2.4207 22.5416 1.76297 21.8894 1.75955 21.0814C1.75614 20.2735 2.40834 19.6158 3.21629 19.6124C4.02423 19.6089 4.68196 20.2611 4.68537 21.0691Z" fill="#5DC067"/>
<path fill-rule="evenodd" clip-rule="evenodd" d="M42.0096 20.9114C42.0171 22.6836 40.5864 24.1264 38.8142 24.1339C37.0419 24.1413 35.5992 22.7107 35.5917 20.9385C35.5842 19.1662 37.0148 17.7234 38.7871 17.7159C40.5593 17.7085 42.0021 19.1391 42.0096 20.9114ZM40.2634 20.9187C40.2668 21.7267 39.6146 22.3844 38.8066 22.3878C37.9987 22.3912 37.3409 21.739 37.3375 20.9311C37.3341 20.1232 37.9863 19.4654 38.7943 19.462C39.6022 19.4586 40.2599 20.1108 40.2634 20.9187Z" fill="#5DC067"/>
<path fill-rule="evenodd" clip-rule="evenodd" d="M10.743 31.3545C12.0014 32.6024 12.01 34.6342 10.7621 35.8927C9.51424 37.1511 7.48244 37.1597 6.22397 35.9118C4.9655 34.664 4.95692 32.6322 6.20481 31.3737C7.4527 30.1152 9.4845 30.1066 10.743 31.3545ZM9.51345 32.5943C10.0872 33.1632 10.0911 34.0895 9.52218 34.6632C8.95329 35.2369 8.02703 35.2408 7.45332 34.6719C6.8796 34.1031 6.87569 33.1768 7.44458 32.6031C8.01347 32.0294 8.93973 32.0255 9.51345 32.5943Z" fill="#5DC067"/>
<path fill-rule="evenodd" clip-rule="evenodd" d="M35.7977 6.08841C37.0561 7.3363 37.0647 9.3681 35.8168 10.6266C34.5689 11.885 32.5371 11.8936 31.2787 10.6457C30.0202 9.39784 30.0116 7.36604 31.2595 6.10757C32.5074 4.84911 34.5392 4.84053 35.7977 6.08841ZM34.5683 7.3283C35.142 7.89719 35.1459 8.82345 34.577 9.39716C34.0081 9.97088 33.0818 9.97479 32.5081 9.4059C31.9344 8.83701 31.9305 7.91075 32.4994 7.33703C33.0683 6.76332 33.9945 6.75941 34.5683 7.3283Z" fill="#5DC067"/>
<path fill-rule="evenodd" clip-rule="evenodd" d="M21.007 28.0315C17.0715 28.0315 13.8811 24.8411 13.8811 20.9056C13.8811 16.9701 17.0715 13.7798 21.007 13.7798C24.9425 13.7798 28.1328 16.9701 28.1328 20.9056C28.1328 24.8411 24.9425 28.0315 21.007 28.0315ZM21.0069 25.2944C18.5831 25.2944 16.6182 23.3294 16.6182 20.9056C16.6182 18.4818 18.5831 16.5168 21.0069 16.5168C23.4308 16.5168 25.3957 18.4818 25.3957 20.9056C25.3957 23.3294 23.4308 25.2944 21.0069 25.2944Z" fill="#5DC067"/>
<path fill-rule="evenodd" clip-rule="evenodd" d="M24.1719 21.0942C23.8673 22.5496 22.5768 23.6426 21.031 23.6426C19.4852 23.6426 18.1946 22.5496 17.8901 21.0942H24.1719Z" fill="#5DC067"/>
<rect x="52.3672" width="1.61538" height="42" fill="#5DC067"/>
<path d="M152.867 36.6621V5.33789H172.512V10.7972H158.327V17.1516H169.581V22.6109H158.327V31.2027H172.512V36.6621H152.867Z" fill="#4A9CB7"/>
<path d="M123.539 36.6621V5.33789H135.554C137.255 5.33789 138.791 5.763 140.163 6.61323C141.536 7.46346 142.624 8.60456 143.43 10.0365C144.235 11.4536 144.638 13.0272 144.638 14.7575C144.638 16.1746 144.377 17.4797 143.855 18.673C143.348 19.8514 142.632 20.8732 141.707 21.7383C140.797 22.6035 139.746 23.2598 138.552 23.7073L147.663 36.6621H141.376L132.511 24.1995H128.998V36.6621H123.539ZM128.998 18.7402H134.928C135.703 18.7402 136.412 18.5462 137.053 18.1584C137.695 17.7706 138.209 17.2485 138.597 16.5922C138.985 15.9359 139.179 15.205 139.179 14.3995C139.179 13.5791 138.985 12.8408 138.597 12.1845C138.209 11.5281 137.695 11.0061 137.053 10.6183C136.412 10.2304 135.703 10.0365 134.928 10.0365H128.998V18.7402Z" fill="#4A9CB7"/>
<path d="M101.454 37.244C99.3359 37.244 97.3445 36.8263 95.48 35.991C93.6155 35.1408 91.9747 33.9699 90.5576 32.4782C89.1406 30.9866 88.0293 29.2638 87.2238 27.3097C86.4184 25.3408 86.0156 23.2376 86.0156 21.0002C86.0156 18.7627 86.4184 16.667 87.2238 14.713C88.0293 12.744 89.1406 11.0137 90.5576 9.5221C91.9747 8.03047 93.6155 6.867 95.48 6.03169C97.3445 5.18146 99.3359 4.75635 101.454 4.75635C103.587 4.75635 105.586 5.18146 107.45 6.03169C109.315 6.867 110.956 8.03047 112.373 9.5221C113.79 11.0137 114.894 12.744 115.684 14.713C116.49 16.667 116.892 18.7627 116.892 21.0002C116.892 23.2376 116.49 25.3408 115.684 27.3097C114.894 29.2638 113.79 30.9866 112.373 32.4782C110.956 33.9699 109.315 35.1408 107.45 35.991C105.586 36.8263 103.587 37.244 101.454 37.244ZM101.454 31.7846C102.826 31.7846 104.117 31.5012 105.325 30.9344C106.533 30.3676 107.592 29.5919 108.502 28.6075C109.427 27.6081 110.143 26.4595 110.65 25.1618C111.172 23.8641 111.433 22.4769 111.433 21.0002C111.433 19.5235 111.172 18.1362 110.65 16.8385C110.128 15.5259 109.404 14.3773 108.48 13.3929C107.57 12.4084 106.511 11.6327 105.302 11.0659C104.109 10.4991 102.826 10.2157 101.454 10.2157C100.082 10.2157 98.7914 10.4991 97.5832 11.0659C96.375 11.6327 95.3085 12.4159 94.3837 13.4152C93.4738 14.3997 92.7578 15.5408 92.2357 16.8385C91.7286 18.1362 91.475 19.5235 91.475 21.0002C91.475 22.4918 91.736 23.8865 92.2581 25.1842C92.7802 26.4819 93.4961 27.6304 94.406 28.6298C95.3308 29.6143 96.3899 30.39 97.5832 30.9568C98.7914 31.5087 100.082 31.7846 101.454 31.7846Z" fill="#4A9CB7"/>
<path d="M64.3203 36.6621V5.33789H69.7797V31.2027H82.8239V36.6621H64.3203Z" fill="#4A9CB7"/>
</svg>
